<?xml version="1.0" encoding="UTF-8"?><svg xmlns="http://www.w3.org/2000/svg" xmlns:xlink="http://www.w3.org/1999/xlink" fill-opacity="1" color-rendering="auto" color-interpolation="auto" text-rendering="auto" stroke="black" stroke-linecap="square" width="290" stroke-miterlimit="10" shape-rendering="auto" stroke-opacity="1" fill="black" stroke-dasharray="none" font-weight="normal" stroke-width="1" height="289" font-family="'Dialog'" font-style="normal" stroke-linejoin="miter" font-size="12" stroke-dashoffset="0" image-rendering="auto">
  <!--Generated by ySVG 2.5-->
  <defs id="genericDefs"/>
  <g>
    <defs id="defs1">
      <clipPath clipPathUnits="userSpaceOnUse" id="clipPath1">
        <path d="M0 0 L290 0 L290 289 L0 289 L0 0 Z"/>
      </clipPath>
      <clipPath clipPathUnits="userSpaceOnUse" id="clipPath2">
        <path d="M126 72 L416 72 L416 361 L126 361 L126 72 Z"/>
      </clipPath>
    </defs>
    <g fill="white" text-rendering="geometricPrecision" shape-rendering="geometricPrecision" transform="translate(-126,-72)" stroke="white">
      <rect x="126" width="290" height="289" y="72" clip-path="url(#clipPath2)" stroke="none"/>
    </g>
    <g text-rendering="geometricPrecision" stroke-miterlimit="1.45" shape-rendering="geometricPrecision" font-family="sans-serif" transform="matrix(1,0,0,1,-126,-72)" stroke-linecap="butt">
      <text x="152.1914" xml:space="preserve" y="106.1543" clip-path="url(#clipPath2)" stroke="none">S</text>
      <circle fill="none" r="15" clip-path="url(#clipPath2)" cx="156" cy="102"/>
      <circle fill="none" r="15" clip-path="url(#clipPath2)" cx="174.152" cy="194.4"/>
      <circle fill="none" r="15" clip-path="url(#clipPath2)" cx="249.52" cy="296.368"/>
      <text x="381.0897" xml:space="preserve" y="334.8263" clip-path="url(#clipPath2)" stroke="none">Z</text>
      <circle fill="none" r="15" clip-path="url(#clipPath2)" cx="385.2" cy="330.672"/>
      <circle fill="none" r="15" clip-path="url(#clipPath2)" cx="353.968" cy="162.224"/>
      <path fill="none" d="M158.8915 116.7187 L169.7184 171.8314" clip-path="url(#clipPath2)" stroke="red"/>
      <path fill="red" d="M171.2605 179.6813 L173.8535 166.9426 L169.5256 170.8501 L164.0411 168.8702 Z" clip-path="url(#clipPath2)" stroke="none"/>
      <text x="149.2293" xml:space="preserve" y="154.0413" clip-path="url(#clipPath2)" stroke="none">1</text>
      <path fill="none" d="M183.0679 206.4626 L235.849 277.872" clip-path="url(#clipPath2)"/>
      <path d="M240.6041 284.3054 L237.4923 271.6833 L235.2546 277.0678 L229.4505 277.6273 Z" clip-path="url(#clipPath2)" stroke="none"/>
      <text x="195.3131" xml:space="preserve" y="254.0987" clip-path="url(#clipPath2)" stroke="none">3</text>
      <path fill="none" d="M264.0624 300.0448 L362.9016 325.0343" clip-path="url(#clipPath2)"/>
      <path d="M370.6576 326.9952 L360.2493 319.2064 L361.9322 324.7892 L357.7981 328.9013 Z" clip-path="url(#clipPath2)" stroke="none"/>
      <text x="303.4332" xml:space="preserve" y="327.8892" clip-path="url(#clipPath2)" stroke="none">1</text>
      <path fill="none" d="M170.3507 106.3656 L331.9637 155.53" clip-path="url(#clipPath2)" stroke="red"/>
      <path fill="red" d="M339.6173 157.8584 L329.592 149.5823 L331.007 155.239 L326.6816 159.1494 Z" clip-path="url(#clipPath2)" stroke="none"/>
      <text x="255.7283" xml:space="preserve" y="126.7623" clip-path="url(#clipPath2)" stroke="none">3</text>
      <path fill="none" d="M356.7025 176.9726 L381.007 308.0574" clip-path="url(#clipPath2)"/>
      <path d="M382.4655 315.9234 L385.194 303.213 L380.8247 307.0742 L375.3616 305.036 Z" clip-path="url(#clipPath2)" stroke="none"/>
      <text x="378.2534" xml:space="preserve" y="244.8074" clip-path="url(#clipPath2)" stroke="none">4</text>
    </g>
  </g>
</svg>
