<?xml version="1.0" encoding="UTF-8"?><svg xmlns="http://www.w3.org/2000/svg" xmlns:xlink="http://www.w3.org/1999/xlink" fill-opacity="1" color-rendering="auto" color-interpolation="auto" text-rendering="auto" stroke="black" stroke-linecap="square" width="518" stroke-miterlimit="10" shape-rendering="auto" stroke-opacity="1" fill="black" stroke-dasharray="none" font-weight="normal" stroke-width="1" height="305" font-family="'Dialog'" font-style="normal" stroke-linejoin="miter" font-size="12px" stroke-dashoffset="0" image-rendering="auto">
  <!--Generated by ySVG 2.5-->
  <defs id="genericDefs"/>
  <g>
    <defs id="defs1">
      <clipPath clipPathUnits="userSpaceOnUse" id="clipPath1">
        <path d="M0 0 L518 0 L518 305 L0 305 L0 0 Z"/>
      </clipPath>
      <clipPath clipPathUnits="userSpaceOnUse" id="clipPath2">
        <path d="M126 56 L644 56 L644 361 L126 361 L126 56 Z"/>
      </clipPath>
    </defs>
    <g fill="white" text-rendering="geometricPrecision" shape-rendering="geometricPrecision" transform="translate(-126,-56)" stroke="white">
      <rect x="126" width="518" height="305" y="56" clip-path="url(#clipPath2)" stroke="none"/>
    </g>
    <g text-rendering="geometricPrecision" stroke-miterlimit="1.45" shape-rendering="geometricPrecision" font-family="sans-serif" transform="matrix(1,0,0,1,-126,-56)" stroke-linecap="butt">
      <text x="152.1914" xml:space="preserve" y="106.1543" clip-path="url(#clipPath2)" stroke="none">S</text>
      <circle fill="none" r="15" clip-path="url(#clipPath2)" cx="156" cy="102"/>
      <circle fill="none" r="15" clip-path="url(#clipPath2)" cx="174.152" cy="194.4"/>
      <circle fill="none" r="15" clip-path="url(#clipPath2)" cx="249.52" cy="296.368" stroke="red"/>
      <text x="381.0897" xml:space="preserve" y="334.8263" clip-path="url(#clipPath2)" stroke="none">Z</text>
      <circle fill="none" r="15" clip-path="url(#clipPath2)" cx="385.2" cy="330.672"/>
      <circle fill="none" r="15" clip-path="url(#clipPath2)" cx="353.968" cy="162.224"/>
      <text x="489.6626" xml:space="preserve" y="120.5223" clip-path="url(#clipPath2)" stroke="none">0</text>
      <rect fill="none" x="478.48" width="30" height="30" y="101.368" clip-path="url(#clipPath2)"/>
      <text x="489.6626" xml:space="preserve" y="150.5223" clip-path="url(#clipPath2)" stroke="none">3</text>
      <rect fill="none" x="478.48" width="30" height="30" y="131.368" clip-path="url(#clipPath2)"/>
      <text x="489.6626" xml:space="preserve" y="180.5223" clip-path="url(#clipPath2)" stroke="none">1</text>
      <rect fill="none" x="478.48" width="30" height="30" y="161.368" clip-path="url(#clipPath2)"/>
      <text x="489.6626" xml:space="preserve" y="210.5223" clip-path="url(#clipPath2)" stroke="none">4</text>
      <rect fill="none" x="478.48" width="30" height="30" y="191.368" clip-path="url(#clipPath2)"/>
      <text x="485.898" xml:space="preserve" y="240.5223" clip-path="url(#clipPath2)" stroke="none">inf</text>
      <rect fill="none" x="478.48" width="30" height="30" y="221.368" clip-path="url(#clipPath2)"/>
      <text x="468.1939" xml:space="preserve" y="90.5223" clip-path="url(#clipPath2)" font-family="monospace" stroke="none">Distance</text>
      <text x="585.0104" xml:space="preserve" y="90.5223" clip-path="url(#clipPath2)" font-family="monospace" stroke="none">Queue</text>
      <rect fill="none" x="588.072" width="30" height="150" y="101.368" clip-path="url(#clipPath2)"/>
      <text x="599.2546" xml:space="preserve" y="150.5223" clip-path="url(#clipPath2)" stroke="none">7</text>
      <rect fill="none" x="588.072" width="30" height="30" y="131.368" clip-path="url(#clipPath2)"/>
      <text x="599.2546" xml:space="preserve" y="120.5223" clip-path="url(#clipPath2)" stroke="none">5</text>
      <rect fill="none" x="588.072" width="30" height="30" y="101.368" clip-path="url(#clipPath2)"/>
      <path fill="none" d="M158.8915 116.7187 L169.7184 171.8314" clip-path="url(#clipPath2)"/>
      <path d="M171.2605 179.6813 L173.8535 166.9426 L169.5256 170.8501 L164.0411 168.8702 Z" clip-path="url(#clipPath2)" stroke="none"/>
      <text x="149.2293" xml:space="preserve" y="154.0413" clip-path="url(#clipPath2)" stroke="none">1</text>
      <path fill="none" d="M183.0679 206.4626 L235.849 277.872" clip-path="url(#clipPath2)"/>
      <path d="M240.6041 284.3054 L237.4923 271.6833 L235.2546 277.0678 L229.4505 277.6273 Z" clip-path="url(#clipPath2)" stroke="none"/>
      <text x="195.3131" xml:space="preserve" y="254.0987" clip-path="url(#clipPath2)" stroke="none">3</text>
      <path fill="none" d="M264.0624 300.0448 L362.9016 325.0343" clip-path="url(#clipPath2)"/>
      <path d="M370.6576 326.9952 L360.2493 319.2064 L361.9322 324.7892 L357.7981 328.9013 Z" clip-path="url(#clipPath2)" stroke="none"/>
      <text x="303.4332" xml:space="preserve" y="327.8892" clip-path="url(#clipPath2)" stroke="none">1</text>
      <path fill="none" d="M170.3507 106.3656 L331.9637 155.53" clip-path="url(#clipPath2)"/>
      <path d="M339.6173 157.8584 L329.592 149.5823 L331.007 155.239 L326.6816 159.1494 Z" clip-path="url(#clipPath2)" stroke="none"/>
      <text x="255.7283" xml:space="preserve" y="126.7623" clip-path="url(#clipPath2)" stroke="none">3</text>
      <path fill="none" d="M356.7025 176.9726 L381.007 308.0574" clip-path="url(#clipPath2)"/>
      <path d="M382.4655 315.9234 L385.194 303.213 L380.8247 307.0742 L375.3616 305.036 Z" clip-path="url(#clipPath2)" stroke="none"/>
      <text x="378.2534" xml:space="preserve" y="244.8074" clip-path="url(#clipPath2)" stroke="none">4</text>
      <path fill="none" d="M170.9864 102.638 L470.4872 115.3891" clip-path="url(#clipPath2)" stroke="rgb(187,187,187)"/>
      <path fill="rgb(187,187,187)" d="M478.48 115.7294 L466.7036 110.2235 L469.4882 115.3466 L466.2782 120.2144 Z" clip-path="url(#clipPath2)" stroke="none"/>
      <path fill="none" d="M368.872 160.5301 L470.5312 148.9762" clip-path="url(#clipPath2)" stroke="rgb(187,187,187)"/>
      <path fill="rgb(187,187,187)" d="M478.48 148.0728 L465.9921 144.4599 L469.5375 149.0891 L467.1214 154.3959 Z" clip-path="url(#clipPath2)" stroke="none"/>
      <path fill="none" d="M189.152 194.4 L470.494 177.73" clip-path="url(#clipPath2)" stroke="rgb(187,187,187)"/>
      <path fill="rgb(187,187,187)" d="M478.48 177.2568 L466.2053 172.9753 L469.4958 177.7891 L466.7968 182.9578 Z" clip-path="url(#clipPath2)" stroke="none"/>
      <path fill="none" d="M263.5929 291.1763 L470.9745 214.6706" clip-path="url(#clipPath2)" stroke="rgb(187,187,187)"/>
      <path fill="rgb(187,187,187)" d="M478.48 211.9017 L465.4911 211.3641 L470.0363 215.0167 L468.9523 220.746 Z" clip-path="url(#clipPath2)" stroke="none"/>
      <path fill="none" d="M394.6214 318.9999 L455.0391 244.1494 L460.8948 238.3133 L465.9 236.368 L470.48 236.368" clip-path="url(#clipPath2)" stroke="rgb(187,187,187)"/>
      <path fill="rgb(187,187,187)" d="M478.48 236.368 L466.48 231.368 L469.48 236.368 L466.48 241.368 Z" clip-path="url(#clipPath2)" stroke="none"/>
      <path fill="none" d="M588.072 160.6398 L514.2758 230.8536" clip-path="url(#clipPath2)"/>
      <path d="M508.48 236.368 L520.6202 231.7187 L515.0002 230.1643 L513.7271 224.474 Z" clip-path="url(#clipPath2)" stroke="none"/>
      <path fill="none" d="M591.248 131.368 L513.4325 230.0853" clip-path="url(#clipPath2)"/>
      <path d="M508.48 236.368 L519.8354 230.0392 L514.0516 229.2999 L511.982 223.8486 Z" clip-path="url(#clipPath2)" stroke="none"/>
    </g>
  </g>
</svg>
