<?xml version="1.0" encoding="UTF-8"?><svg xmlns="http://www.w3.org/2000/svg" xmlns:xlink="http://www.w3.org/1999/xlink" fill-opacity="1" color-rendering="auto" color-interpolation="auto" text-rendering="auto" stroke="black" stroke-linecap="square" width="390" stroke-miterlimit="10" shape-rendering="auto" stroke-opacity="1" fill="black" stroke-dasharray="none" font-weight="normal" stroke-width="1" height="285" font-family="'Dialog'" font-style="normal" stroke-linejoin="miter" font-size="12" stroke-dashoffset="0" image-rendering="auto">
  <!--Generated by ySVG 2.5-->
  <defs id="genericDefs"/>
  <g>
    <defs id="defs1">
      <clipPath clipPathUnits="userSpaceOnUse" id="clipPath1">
        <path d="M0 0 L390 0 L390 285 L0 285 L0 0 Z"/>
      </clipPath>
      <clipPath clipPathUnits="userSpaceOnUse" id="clipPath2">
        <path d="M60 105 L450 105 L450 390 L60 390 L60 105 Z"/>
      </clipPath>
    </defs>
    <g fill="white" text-rendering="geometricPrecision" shape-rendering="geometricPrecision" transform="translate(-60,-105)" stroke="white">
      <rect x="60" width="390" height="285" y="105" clip-path="url(#clipPath2)" stroke="none"/>
    </g>
    <g font-size="18" stroke-linecap="butt" transform="matrix(1,0,0,1,-60,-105)" text-rendering="geometricPrecision" font-family="sans-serif" shape-rendering="geometricPrecision" font-weight="bold" stroke-miterlimit="1.45">
      <text x="99.9946" xml:space="preserve" y="157.0708" clip-path="url(#clipPath2)" stroke="none">2</text>
      <circle fill="none" r="30" clip-path="url(#clipPath2)" cx="105" cy="150"/>
      <text x="249.9946" xml:space="preserve" y="352.0708" clip-path="url(#clipPath2)" stroke="none">0</text>
      <circle fill="none" r="30" clip-path="url(#clipPath2)" cx="255" cy="345"/>
      <text x="399.9946" xml:space="preserve" y="352.0708" clip-path="url(#clipPath2)" stroke="none">4</text>
      <circle fill="none" r="30" clip-path="url(#clipPath2)" cx="405" cy="345"/>
      <text x="399.9946" xml:space="preserve" y="157.0708" clip-path="url(#clipPath2)" stroke="none">3</text>
      <circle fill="none" r="30" clip-path="url(#clipPath2)" cx="405" cy="150"/>
      <text x="249.9946" xml:space="preserve" y="232.0708" clip-path="url(#clipPath2)" stroke="none">5</text>
      <circle fill="none" r="30" clip-path="url(#clipPath2)" cx="255" cy="225"/>
      <text x="99.9946" xml:space="preserve" y="352.0708" clip-path="url(#clipPath2)" stroke="none">1</text>
      <circle fill="none" r="30" clip-path="url(#clipPath2)" cx="105" cy="345"/>
    </g>
    <g stroke-linecap="butt" transform="matrix(1,0,0,1,-60,-105)" fill="rgb(51,153,102)" text-rendering="geometricPrecision" shape-rendering="geometricPrecision" stroke="rgb(51,153,102)" stroke-width="5" stroke-miterlimit="1.45">
      <path fill="none" d="M236.7087 321.2213 L123.2913 173.7787" clip-path="url(#clipPath2)"/>
      <rect x="173.5508" y="235.6992" clip-path="url(#clipPath2)" fill="white" width="12.8984" height="23.6016" stroke="none"/>
    </g>
    <g font-size="16" stroke-linecap="butt" transform="matrix(1,0,0,1,-60,-105)" text-rendering="geometricPrecision" font-family="sans-serif" shape-rendering="geometricPrecision" font-style="italic" stroke-miterlimit="1.45">
      <text x="175.5508" xml:space="preserve" y="253.7852" clip-path="url(#clipPath2)" stroke="none">1</text>
    </g>
    <g stroke-linecap="butt" transform="matrix(1,0,0,1,-60,-105)" fill="red" text-rendering="geometricPrecision" shape-rendering="geometricPrecision" stroke="red" stroke-width="5" stroke-miterlimit="1.45">
      <path fill="none" d="M285 345 L375 345" clip-path="url(#clipPath2)"/>
      <rect x="323.5508" y="333.1992" clip-path="url(#clipPath2)" fill="white" width="12.8984" height="23.6016" stroke="none"/>
    </g>
    <g font-size="16" stroke-linecap="butt" transform="matrix(1,0,0,1,-60,-105)" text-rendering="geometricPrecision" font-family="sans-serif" shape-rendering="geometricPrecision" font-style="italic" stroke-miterlimit="1.45">
      <text x="325.5508" xml:space="preserve" y="351.2852" clip-path="url(#clipPath2)" stroke="none">4</text>
    </g>
    <g stroke-linecap="butt" transform="matrix(1,0,0,1,-60,-105)" fill="rgb(51,153,102)" text-rendering="geometricPrecision" shape-rendering="geometricPrecision" stroke="rgb(51,153,102)" stroke-width="5" stroke-miterlimit="1.45">
      <path fill="none" d="M273.2913 321.2213 L386.7087 173.7787" clip-path="url(#clipPath2)"/>
      <rect x="323.5508" y="235.6992" clip-path="url(#clipPath2)" fill="white" width="12.8984" height="23.6016" stroke="none"/>
    </g>
    <g font-size="16" stroke-linecap="butt" transform="matrix(1,0,0,1,-60,-105)" text-rendering="geometricPrecision" font-family="sans-serif" shape-rendering="geometricPrecision" font-style="italic" stroke-miterlimit="1.45">
      <text x="325.5508" xml:space="preserve" y="253.7852" clip-path="url(#clipPath2)" stroke="none">3</text>
    </g>
    <g stroke-linecap="butt" transform="matrix(1,0,0,1,-60,-105)" fill="rgb(51,153,102)" text-rendering="geometricPrecision" shape-rendering="geometricPrecision" stroke="rgb(51,153,102)" stroke-width="5" stroke-miterlimit="1.45">
      <path fill="none" d="M405 315 L405 180" clip-path="url(#clipPath2)"/>
      <rect x="398.5508" y="235.6992" clip-path="url(#clipPath2)" fill="white" width="12.8984" height="23.6016" stroke="none"/>
    </g>
    <g font-size="16" stroke-linecap="butt" transform="matrix(1,0,0,1,-60,-105)" text-rendering="geometricPrecision" font-family="sans-serif" shape-rendering="geometricPrecision" font-style="italic" stroke-miterlimit="1.45">
      <text x="400.5508" xml:space="preserve" y="253.7852" clip-path="url(#clipPath2)" stroke="none">2</text>
    </g>
    <g text-rendering="geometricPrecision" stroke-miterlimit="1.45" stroke-width="3" shape-rendering="geometricPrecision" transform="matrix(1,0,0,1,-60,-105)" stroke-linecap="butt">
      <path fill="none" d="M135 150 L375 150" clip-path="url(#clipPath2)"/>
      <rect x="248.5508" y="138.1992" clip-path="url(#clipPath2)" fill="white" width="12.8984" height="23.6016" stroke="none"/>
    </g>
    <g font-size="16" stroke-linecap="butt" transform="matrix(1,0,0,1,-60,-105)" text-rendering="geometricPrecision" font-family="sans-serif" shape-rendering="geometricPrecision" font-style="italic" stroke-miterlimit="1.45">
      <text x="250.5508" xml:space="preserve" y="156.2852" clip-path="url(#clipPath2)" stroke="none">5</text>
    </g>
    <g text-rendering="geometricPrecision" stroke-miterlimit="1.45" stroke-width="3" shape-rendering="geometricPrecision" transform="matrix(1,0,0,1,-60,-105)" stroke-linecap="butt">
      <path fill="none" d="M255 315 L255 255" clip-path="url(#clipPath2)"/>
      <rect x="248.5508" y="273.1992" clip-path="url(#clipPath2)" fill="white" width="12.8984" height="23.6016" stroke="none"/>
    </g>
    <g font-size="16" stroke-linecap="butt" transform="matrix(1,0,0,1,-60,-105)" text-rendering="geometricPrecision" font-family="sans-serif" shape-rendering="geometricPrecision" font-style="italic" stroke-miterlimit="1.45">
      <text x="250.5508" xml:space="preserve" y="291.2852" clip-path="url(#clipPath2)" stroke="none">7</text>
    </g>
    <g text-rendering="geometricPrecision" stroke-miterlimit="1.45" stroke-width="3" shape-rendering="geometricPrecision" transform="matrix(1,0,0,1,-60,-105)" stroke-linecap="butt">
      <path fill="none" d="M281.8328 211.5836 L378.1672 163.4164" clip-path="url(#clipPath2)"/>
      <rect x="323.5508" y="175.6992" clip-path="url(#clipPath2)" fill="white" width="12.8984" height="23.6016" stroke="none"/>
    </g>
    <g font-size="16" stroke-linecap="butt" transform="matrix(1,0,0,1,-60,-105)" text-rendering="geometricPrecision" font-family="sans-serif" shape-rendering="geometricPrecision" font-style="italic" stroke-miterlimit="1.45">
      <text x="325.5508" xml:space="preserve" y="193.7852" clip-path="url(#clipPath2)" stroke="none">5</text>
    </g>
    <g stroke-linecap="butt" transform="matrix(1,0,0,1,-60,-105)" fill-opacity="0.5176" fill="rgb(192,192,192)" text-rendering="geometricPrecision" shape-rendering="geometricPrecision" stroke="rgb(192,192,192)" stroke-width="5" stroke-opacity="0.5176" stroke-miterlimit="1.45">
      <path fill="none" d="M105 180 L105 315" clip-path="url(#clipPath2)"/>
    </g>
    <g stroke-linecap="butt" transform="matrix(1,0,0,1,-60,-105)" fill="white" text-rendering="geometricPrecision" shape-rendering="geometricPrecision" stroke="white" stroke-width="5" stroke-miterlimit="1.45">
      <rect x="98.5508" width="12.8984" height="23.6016" y="235.6992" clip-path="url(#clipPath2)" stroke="none"/>
    </g>
    <g stroke-linecap="butt" font-size="16" transform="matrix(1,0,0,1,-60,-105)" fill-opacity="0.5176" fill="rgb(192,192,192)" text-rendering="geometricPrecision" font-family="sans-serif" shape-rendering="geometricPrecision" font-style="italic" stroke="rgb(192,192,192)" stroke-opacity="0.5176" stroke-miterlimit="1.45">
      <text x="100.5508" xml:space="preserve" y="253.7852" clip-path="url(#clipPath2)" stroke="none">3</text>
    </g>
    <g stroke-linecap="butt" transform="matrix(1,0,0,1,-60,-105)" fill="rgb(51,153,102)" text-rendering="geometricPrecision" shape-rendering="geometricPrecision" stroke="rgb(51,153,102)" stroke-width="5" stroke-miterlimit="1.45">
      <path fill="none" d="M135 345 L225 345" clip-path="url(#clipPath2)"/>
      <rect x="173.5508" y="333.1992" clip-path="url(#clipPath2)" fill="white" width="12.8984" height="23.6016" stroke="none"/>
    </g>
    <g font-size="16" stroke-linecap="butt" transform="matrix(1,0,0,1,-60,-105)" text-rendering="geometricPrecision" font-family="sans-serif" shape-rendering="geometricPrecision" font-style="italic" stroke-miterlimit="1.45">
      <text x="175.5508" xml:space="preserve" y="351.2852" clip-path="url(#clipPath2)" stroke="none">2</text>
    </g>
  </g>
</svg>
